<?xml version="1.0" encoding="UTF-8"?>
<svg id="Calque_1" data-name="Calque 1" xmlns="http://www.w3.org/2000/svg" version="1.1" viewBox="0 0 512 512">
  <defs>
    <style>
      .cls-1 {
        fill: #000;
      }

      .cls-1, .cls-2 {
        stroke-width: 0px;
      }

      .cls-2 {
        fill: teal;
      }
    </style>
  </defs>
  <path class="cls-2" d="M432,4c-11,0-20,9-20,20v36h-36c-11,0-20,9-20,20s9,20,20,20h36v36c0,11,9,20,20,20s20-9,20-20v-36h36c11,0,20-9,20-20s-9-20-20-20h-36V24c0-11-9-20-20-20Z"/>
  <path class="cls-1" d="M490.1,222.8l-209.3-89.7c-7.8-3.4-16.3-5.1-24.8-5.1s-17,1.7-24.8,5.1L21.9,222.8c-13.3,5.7-21.9,18.7-21.9,33.2s8.6,27.5,21.9,33.2l209.3,89.7c7.8,3.4,16.3,5.1,24.8,5.1s17-1.7,24.8-5.1l209.3-89.7c13.3-5.7,21.9-18.8,21.9-33.2s-8.6-27.5-21.9-33.2ZM261.9,334.8c-1.9.8-3.9,1.2-5.9,1.2s-4-.4-5.9-1.2l-183.8-78.8,183.8-78.8c1.9-.8,3.9-1.2,5.9-1.2s4,.4,5.9,1.2l183.8,78.8-183.8,78.8Z"/>
  <path class="cls-1" d="M53.1,337.4l-31.2,13.4c-13.3,5.7-21.9,18.7-21.9,33.2s8.6,27.5,21.9,33.2l209.3,89.7c7.8,3.4,16.3,5.1,24.8,5.1s17-1.7,24.8-5.1l209.3-89.7c13.3-5.7,21.9-18.8,21.9-33.2s-8.6-27.5-21.9-33.2l-31.2-13.4-60.9,26.1,47.7,20.5-183.8,78.8c-1.9.8-3.9,1.2-5.9,1.2s-4-.4-5.9-1.2l-183.8-78.8,47.7-20.5-60.9-26.1Z"/>
</svg>