<?xml version="1.0" encoding="UTF-8"?>
<svg id="Calque_1" data-name="Calque 1" xmlns="http://www.w3.org/2000/svg" version="1.1" viewBox="0 0 512 512">
  <defs>
    <style>
      .cls-1 {
        fill: #000;
      }

      .cls-1, .cls-2 {
        stroke-width: 0px;
      }

      .cls-2 {
        fill: teal;
      }
    </style>
  </defs>
  <path class="cls-1" d="M323.9,182h-173.1v-75.7c0-35.9,29.2-65.2,65.2-65.2s65.2,29.2,65.2,65.2v20.6c0,11.1,9,20.1,20.1,20.1s20.1-9,20.1-20.1v-20.6c0-58.1-47.3-105.4-105.4-105.4s-105.4,47.3-105.4,105.4v75.7h-2.5c-30.7,0-55.7,25-55.7,55.7v215.4c0,32.1,26.1,58.2,58.2,58.2h210.9c32.1,0,58.2-26.1,58.2-58.2v-215.4c0-30.7-25-55.7-55.7-55.7ZM339.3,453.1c0,9.9-8,17.9-17.9,17.9H110.5c-9.9,0-17.9-8-17.9-17.9v-215.4c0-8.5,6.9-15.4,15.4-15.4h215.8c8.5,0,15.4,6.9,15.4,15.4v215.4h0Z"/>
  <path class="cls-1" d="M215.9,271.7c-23,0-41.7,18.7-41.7,41.7s8.7,29.4,21.5,36.5v51.5c0,11.1,9,20.1,20.1,20.1s20.1-9,20.1-20.1v-51.5c12.8-7.1,21.5-20.8,21.5-36.5,0-23-18.7-41.7-41.7-41.7Z"/>
  <path class="cls-2" d="M360.4,110.1c2.5,1,5,1.5,7.5,1.5,8,0,15.5-4.8,18.7-12.7l15-37.4c4.1-10.3-.9-22.1-11.2-26.2-10.3-4.1-22.1.9-26.2,11.2l-15,37.4c-4.1,10.3.9,22.1,11.2,26.2Z"/>
  <path class="cls-2" d="M383.6,134.9c3.3,7.6,10.7,12.2,18.5,12.2s5.3-.5,7.9-1.6l37-15.8c10.2-4.4,15-16.2,10.6-26.4-4.4-10.2-16.2-15-26.4-10.6l-37,15.8c-10.2,4.4-15,16.2-10.6,26.4Z"/>
  <path class="cls-2" d="M446,172.6l-37.4-15c-10.3-4.1-22.1.9-26.2,11.2-4.1,10.3.9,22.1,11.2,26.2l37.4,15c2.5,1,5,1.5,7.5,1.5,8,0,15.5-4.8,18.7-12.7,4.1-10.3-.9-22.1-11.2-26.2Z"/>
</svg>