<?xml version="1.0" encoding="UTF-8"?>
<svg id="Calque_1" data-name="Calque 1" xmlns="http://www.w3.org/2000/svg" version="1.1" viewBox="0 0 512 512">
  <defs>
    <style>
      .cls-1 {
        fill: #000;
      }

      .cls-1, .cls-2 {
        stroke-width: 0px;
      }

      .cls-2 {
        fill: teal;
      }
    </style>
  </defs>
  <rect class="cls-2" x="169" y="412.3" width="164" height="79" rx="12" ry="12"/>
  <g id="Page-1">
    <g id="specs_export" data-name="specs export">
      <path id="process_-flow_-stops_-route_-transition" data-name="process,-flow,-stops,-route,-transition" class="cls-1" d="M203.3,0h105.4C333.7,0,353.9,20.2,353.9,45.2v30.1c0,25-20.2,45.2-45.2,45.2h-105.4c-25,0-45.2-20.2-45.2-45.2v-30.1C158.1,20.2,178.3,0,203.3,0ZM203.3,30.1c-8.3,0-15.1,6.7-15.1,15.1v30.1c0,8.3,6.7,15.1,15.1,15.1h105.4c8.3,0,15.1-6.7,15.1-15.1v-30.1c0-8.3-6.7-15.1-15.1-15.1h-105.4ZM203.3,391.5h105.4c25,0,45.2,20.2,45.2,45.2v30.1c0,25-20.2,45.2-45.2,45.2h-105.4c-25,0-45.2-20.2-45.2-45.2v-30.1c0-25,20.2-45.2,45.2-45.2ZM203.3,421.6c-8.3,0-15.1,6.7-15.1,15.1v30.1c0,8.3,6.7,15.1,15.1,15.1h105.4c8.3,0,15.1-6.7,15.1-15.1v-30.1c0-8.3-6.7-15.1-15.1-15.1h-105.4ZM203.3,195.8h105.4c25,0,45.2,20.2,45.2,45.2v30.1c0,25-20.2,45.2-45.2,45.2h-105.4c-25,0-45.2-20.2-45.2-45.2v-30.1c0-25,20.2-45.2,45.2-45.2ZM203.3,225.9c-8.3,0-15.1,6.7-15.1,15.1v30.1c0,8.3,6.7,15.1,15.1,15.1h105.4c8.3,0,15.1-6.7,15.1-15.1v-30.1c0-8.3-6.7-15.1-15.1-15.1h-105.4ZM82.7,462.7C34.7,449.4,0,405.5,0,353.9s50.6-112.9,112.9-112.9h7.5c8.3,0,15.1,6.7,15.1,15.1s-6.7,15.1-15.1,15.1h-7.5c-45.7,0-82.8,37.1-82.8,82.8s26.2,71,62.2,80.2l-7.4-12.3c-4.3-7.1-2-16.4,5.2-20.7,7.1-4.3,16.4-2,20.7,5.2l22.6,37.6c3.9,6.5,2.4,14.8-3.5,19.5l-37.6,30.1c-6.5,5.2-16,4.1-21.2-2.4s-4.1-16,2.4-21.2l9.3-7.4ZM429.3,267l9.3,7.4c6.5,5.2,7.5,14.7,2.4,21.2s-14.7,7.5-21.2,2.4l-37.6-30.1c-5.9-4.7-7.4-13-3.5-19.5l22.6-37.6c4.3-7.1,13.5-9.4,20.7-5.2,7.1,4.3,9.4,13.5,5.2,20.7l-7.4,12.3c36-9.2,62.2-41.9,62.2-80.2s-37.1-82.8-82.8-82.8h-7.5c-8.3,0-15.1-6.7-15.1-15.1s6.7-15.1,15.1-15.1h7.5c62.4,0,112.9,50.6,112.9,112.9s-34.7,95.5-82.7,108.8h0Z"/>
    </g>
  </g>
</svg>